<svg width="12" height="12" viewBox="0 0 16 16" focusable="false" class="jsx-2775998425 eactc-button-closeIcon" xmlns="http://www.w3.org/2000/svg"><path d="M9.414,8l6.112-6.112c0.396-0.396,0.401-1.032,0.009-1.423c-0.39-0.39-1.027-0.387-1.423,0.009L8,6.585 L1.888,0.473C1.492,0.077,0.854,0.074,0.465,0.464C0.073,0.856,0.078,1.492,0.474,1.888L6.586,8l-6.112,6.112 c-0.396,0.396-0.401,1.033-0.009,1.423c0.39,0.391,1.027,0.387,1.423-0.008L8,9.415l6.112,6.113 c0.396,0.394,1.033,0.399,1.423,0.008c0.39-0.39,0.387-1.027-0.009-1.423L9.414,8z" class="jsx-2775998425"></path></svg>